<svg width="400" height="120" viewBox="0 0 400 120" fill="none" xmlns="http://www.w3.org/2000/svg">
  <!-- Background -->
  <rect width="400" height="120" fill="#F8F9FA"/>
  
  <!-- Food items illustration -->
  <!-- Bowl -->
  <circle cx="80" cy="60" r="25" fill="#FF6B6B" opacity="0.8"/>
  <circle cx="80" cy="60" r="20" fill="#FFE5E5"/>
  <circle cx="75" cy="55" r="3" fill="#FF6B6B"/>
  <circle cx="85" cy="55" r="3" fill="#FF6B6B"/>
  <circle cx="80" cy="65" r="3" fill="#FF6B6B"/>
  
  <!-- Plate with food -->
  <ellipse cx="160" cy="70" rx="30" ry="8" fill="#E8E8E8"/>
  <circle cx="160" cy="60" r="18" fill="#4ECDC4" opacity="0.8"/>
  <circle cx="155" cy="58" r="4" fill="#FFD93D"/>
  <circle cx="165" cy="58" r="4" fill="#FF6B6B"/>
  <circle cx="160" cy="65" r="4" fill="#6BCF7F"/>
  
  <!-- Donut -->
  <circle cx="240" cy="60" r="20" fill="#FFD93D"/>
  <circle cx="240" cy="60" r="8" fill="#F8F9FA"/>
  <circle cx="235" cy="55" r="2" fill="#FF6B6B"/>
  <circle cx="245" cy="55" r="2" fill="#4ECDC4"/>
  <circle cx="240" cy="50" r="2" fill="#6BCF7F"/>
  
  <!-- Coffee cup -->
  <ellipse cx="320" cy="75" rx="15" ry="5" fill="#8B4513"/>
  <rect x="305" y="50" width="30" height="25" rx="3" fill="#D2691E"/>
  <rect x="308" y="53" width="24" height="19" rx="2" fill="#F5DEB3"/>
  <rect x="335" y="58" width="8" height="12" rx="4" fill="#D2691E"/>
  
  <!-- Decorative elements -->
  <circle cx="50" cy="30" r="3" fill="#FFD93D" opacity="0.6"/>
  <circle cx="350" cy="25" r="4" fill="#FF6B6B" opacity="0.6"/>
  <circle cx="200" cy="20" r="2" fill="#4ECDC4" opacity="0.6"/>
  <circle cx="120" cy="100" r="3" fill="#6BCF7F" opacity="0.6"/>
  <circle cx="280" cy="95" r="2" fill="#FFD93D" opacity="0.6"/>
</svg>